# xmcd
#
# Track frame offsets: 
#        150
#        15971
#        34731
#        50479
#        65275
#        78630
#        98018
#        114548
#        130757
#        143992
#        165078
#        192696
#        211923
#
# Disc length: 3007 seconds
#
# Revision: 0
# Processed by: cddbd v1.5.2PL0 Copyright (c) Steve Scherf et al.
# Submitted via: ExactAudioCopyFreeDBPlugin 1.0
#
DISCID=a80bbd0d
DTITLE=Baptiste W. Hamon  - L'Insouciance
DYEAR=2016
DGENRE=Crossover
TTITLE0=Joséphine
TTITLE1=Come La Vie Est Belle
TTITLE2=Columbia
TTITLE3=Peut-être Que Nous Serions Heureux
TTITLE4=Ballade d'Alan Seeger
TTITLE5=Terpsichore
TTITLE6=Tu N'en Voulais Pas
TTITLE7=Dieu Que Mon Cœur Est Lent
TTITLE8=It's Been A While
TTITLE9=Les Sycomores
TTITLE10=Van Zandt
TTITLE11=Les Bords de L'Yonne
TTITLE12=Maria Chapdelaine
EXTD=
EXTT0=
EXTT1=
EXTT2=
EXTT3=
EXTT4=
EXTT5=
EXTT6=
EXTT7=
EXTT8=
EXTT9=
EXTT10=
EXTT11=
EXTT12=
PLAYORDER=
